<svg width="21" height="20" viewBox="0 0 21 20" fill="none" xmlns="http://www.w3.org/2000/svg">
<path d="M1.90535 17.3276C2.27314 18.8995 3.67593 20 5.31389 20H15.6887C17.3266 20 18.7308 18.8995 19.0972 17.3276L20.9457 9.43172C21.0893 8.81479 20.9457 8.17365 20.5438 7.68065C20.1445 7.18362 19.5429 6.90076 18.899 6.90076H16.8508L14.3023 0.442134C14.2353 0.26972 14.1027 0.135024 13.9318 0.0595822C13.7609 -0.0158591 13.5708 -0.0198902 13.3958 0.0488064C13.2208 0.11481 13.0841 0.245465 13.0075 0.413841C12.9309 0.582217 12.9269 0.769427 12.9966 0.941841L15.3483 6.89701H5.64901L8.00069 0.941841C8.06769 0.769427 8.06359 0.58353 7.98975 0.413841C7.91592 0.245468 7.77646 0.117503 7.60418 0.0488064C7.42917 -0.0171971 7.24048 -0.0131557 7.06824 0.0595822C6.89733 0.135013 6.76334 0.269714 6.69771 0.439445L4.14919 6.89807H2.10104C1.45709 6.89807 0.858212 7.18363 0.456255 7.67796C0.054299 8.175 -0.0892767 8.81214 0.0542992 9.42903L1.90279 17.3249L1.90535 17.3276ZM1.55534 8.53862C1.68796 8.37294 1.88758 8.28 2.10087 8.28H18.9016C19.1148 8.28 19.3145 8.37294 19.4471 8.53862C19.5797 8.7043 19.6289 8.91848 19.5797 9.12186L17.7312 17.0177C17.5111 17.962 16.6675 18.6206 15.6831 18.6206H5.3083C4.32525 18.6206 3.48441 17.9619 3.26015 17.0177L1.41166 9.12186C1.36244 8.91442 1.41166 8.70431 1.54428 8.53862H1.55534Z" fill="white"/>
</svg>
