<svg width="19" height="11" viewBox="0 0 19 11" fill="none" xmlns="http://www.w3.org/2000/svg">
<path d="M1.79117e-06 9.74273C-0.000371332 9.42557 0.117274 9.12072 0.328001 8.89279L7.85021 0.72838C8.06169 0.498072 8.31544 0.314842 8.59623 0.189679C8.87702 0.0645164 9.17907 -1.17113e-07 9.48427 -1.13474e-07C9.78947 -1.09834e-07 10.0915 0.0645164 10.3723 0.189679C10.6531 0.314842 10.9069 0.498072 11.1183 0.72838L18.6405 8.89279C18.754 9.00683 18.8443 9.14365 18.9061 9.29507C18.9678 9.44648 18.9998 9.60938 19 9.77401C19.0002 9.93865 18.9687 10.1016 18.9074 10.2532C18.846 10.4048 18.7561 10.5419 18.6429 10.6563C18.5298 10.7707 18.3958 10.86 18.2489 10.9189C18.102 10.9778 17.9453 11.0051 17.7881 10.9992C17.6309 10.9933 17.4764 10.9542 17.334 10.8843C17.1915 10.8145 17.064 10.7153 16.9591 10.5927L9.48427 2.48203L2.00948 10.5927C1.84789 10.7686 1.63969 10.8898 1.4117 10.9408C1.18371 10.9917 0.94636 10.9701 0.730207 10.8787C0.514055 10.7873 0.328997 10.6302 0.19886 10.4278C0.0687234 10.2253 -0.00053531 9.98673 1.79117e-06 9.74273Z" fill="#100F0F"/>
</svg>
