<svg width="16" height="14" viewBox="0 0 16 14" fill="none" xmlns="http://www.w3.org/2000/svg">
<path d="M12.9993 0.750001V9.25001C12.9993 9.66251 13.3368 10 13.7493 10C14.1618 10 14.4993 9.66251 14.4993 9.25001V0.750001C14.4993 0.3375 14.1618 0 13.7493 0C13.3368 0 12.9993 0.3375 12.9993 0.750001Z" fill="#86868C"/>
<path d="M8.99878 5.25V9.25001C8.99878 9.66251 9.33628 10 9.74878 10C10.1613 10 10.4988 9.66251 10.4988 9.25001V5.25C10.4988 4.8375 10.1613 4.5 9.74878 4.5C9.33628 4.5 8.99878 4.8375 8.99878 5.25Z" fill="#86868C"/>
<path d="M5.00122 2.75V9.25001C5.00122 9.66251 5.33872 10 5.75122 10C6.16372 10 6.50122 9.66251 6.50122 9.25001V2.75C6.50122 2.3375 6.16372 2 5.75122 2C5.33872 2 5.00122 2.3375 5.00122 2.75Z" fill="#86868C"/>
<path d="M0.75 14H14.75C15.1625 14 15.5 13.6625 15.5 13.25C15.5 12.8375 15.1625 12.5 14.75 12.5H0.75C0.3375 12.5 0 12.8375 0 13.25C0 13.6625 0.3375 14 0.75 14Z" fill="#86868C"/>
<path d="M1.00073 6V9.25001C1.00073 9.66251 1.33823 10 1.75073 10C2.16323 10 2.50073 9.66251 2.50073 9.25001V6C2.50073 5.5875 2.16323 5.25 1.75073 5.25C1.33823 5.25 1.00073 5.5875 1.00073 6Z" fill="#86868C"/>
</svg>
