<svg width="18" height="17" viewBox="0 0 18 17" fill="none" xmlns="http://www.w3.org/2000/svg">
<g clip-path="url(#clip0_2005_1862)">
<path d="M14.8539 3.14676C14.7601 3.05302 14.633 3.00037 14.5004 3.00037C14.3678 3.00037 14.2406 3.05302 14.1469 3.14676L9.00038 8.29326L3.85388 3.14676C3.76012 3.05302 3.63296 3.00037 3.50038 3.00037C3.3678 3.00037 3.24065 3.05302 3.14688 3.14676C3.05315 3.24052 3.00049 3.36768 3.00049 3.50026C3.00049 3.63284 3.05315 3.76 3.14688 3.85376L8.29338 9.00026L3.14688 14.1468C3.05315 14.2405 3.00049 14.3677 3.00049 14.5003C3.00049 14.6328 3.05315 14.76 3.14688 14.8538C3.24065 14.9475 3.3678 15.0002 3.50038 15.0002C3.63296 15.0002 3.76012 14.9475 3.85388 14.8538L9.00038 9.70726L14.1469 14.8538C14.2406 14.9475 14.3678 15.0002 14.5004 15.0002C14.633 15.0002 14.7601 14.9475 14.8539 14.8538C14.9476 14.76 15.0003 14.6328 15.0003 14.5003C15.0003 14.3677 14.9476 14.2405 14.8539 14.1468L9.70738 9.00026L14.8539 3.85376C14.9476 3.76 15.0003 3.63284 15.0003 3.50026C15.0003 3.36768 14.9476 3.24052 14.8539 3.14676Z" fill="#86868C"/>
</g>
<defs>
<clipPath id="clip0_2005_1862">
<rect width="12" height="12" fill="white" transform="translate(3 3)"/>
</clipPath>
</defs>
</svg>
