<svg width="10" height="17" viewBox="0 0 10 17" fill="none" xmlns="http://www.w3.org/2000/svg">
<path d="M8.88574 0.5C8.97235 0.499884 9.05758 0.516743 9.13574 0.547852C9.21391 0.578985 9.28302 0.623366 9.33887 0.677734C9.39448 0.731893 9.43592 0.794372 9.46289 0.860352C9.48982 0.926436 9.50265 0.996492 9.5 1.06543C9.49732 1.13428 9.47947 1.20292 9.44727 1.26758C9.415 1.33234 9.36801 1.39242 9.30762 1.44336L9.30078 1.44922L9.29395 1.45605L1.9209 8.14355L1.51172 8.51367L1.9209 8.88477L9.29395 15.5723V15.5732C9.38003 15.6511 9.43616 15.7472 9.45898 15.8477C9.48171 15.9478 9.47229 16.0525 9.43066 16.1494C9.38887 16.2466 9.31461 16.335 9.21289 16.3994C9.11077 16.464 8.98697 16.5002 8.8584 16.5H8.85645C8.68883 16.5002 8.53296 16.4388 8.4209 16.3369L8.41992 16.3359L0.998047 9.60547H0.99707C0.837508 9.46126 0.712702 9.28966 0.62793 9.10254C0.543194 8.91544 0.5 8.71487 0.5 8.51367C0.500057 8.31261 0.54325 8.11275 0.62793 7.92578C0.712688 7.73864 0.837508 7.56709 0.99707 7.42285H0.998047L8.41992 0.692383L8.42773 0.685547L8.43457 0.678711C8.49017 0.624351 8.55881 0.579129 8.63672 0.547852C8.71458 0.516652 8.79936 0.500165 8.88574 0.5Z" fill="#100F0F" stroke="black"/>
</svg>
