<svg width="16" height="14" viewBox="0 0 16 14" fill="none" xmlns="http://www.w3.org/2000/svg">
<path d="M8 14C9.60237 14 16 9.11588 16 4.84615C16 2.17277 13.7716 0 11.0345 0C10.014 0 9.13686 0.301835 8.34805 0.923381L8 1.19786L7.65195 0.923381C6.86314 0.301835 5.98276 0 4.96552 0C2.22844 0 0 2.17277 0 4.84615C0 9.11588 6.39752 14 8 14ZM1.45903 3.24127C2.12066 1.83621 3.58618 0.990662 5.19172 1.08427C6.11305 1.13791 6.8275 1.52072 7.58612 2.35997L7.81242 2.61027C7.85337 2.65655 7.92556 2.68599 7.99992 2.68599C8.07427 2.68599 8.14647 2.65865 8.18742 2.61027L8.41371 2.35997C9.17233 1.51967 9.88676 1.1379 10.8081 1.08427C12.4137 0.987517 13.8782 1.83519 14.5408 3.24127C15.0537 4.33397 15.015 5.55919 14.4244 6.88423C13.0893 9.8805 9.21642 12.5435 8.17338 12.88L7.99989 12.9368L7.8264 12.88C6.78654 12.5435 2.91054 9.8805 1.57537 6.88423C0.984855 5.5591 0.946118 4.33494 1.45903 3.24127Z" fill="#86868C"/>
</svg>
