<svg width="1600" height="700" viewBox="0 0 1600 700" fill="none" xmlns="http://www.w3.org/2000/svg">
  <defs>
    <linearGradient id="g1" x1="0" y1="0" x2="1600" y2="700" gradientUnits="userSpaceOnUse">
      <stop stop-color="#E5E5E5"/>
      <stop offset="1" stop-color="#BDBDBD"/>
    </linearGradient>
    <linearGradient id="g2" x1="1050" y1="120" x2="1450" y2="340" gradientUnits="userSpaceOnUse">
      <stop stop-color="#FFFFFF"/>
      <stop offset="1" stop-color="#E6E6E6"/>
    </linearGradient>
  </defs>
  <rect width="1600" height="700" fill="url(#g1)"/>
  <rect x="0" y="0" width="1600" height="700" fill="#D8D8D8" opacity="0.45"/>
  <polygon points="0,260 390,0 500,0 145,260" fill="#C1C1C1"/>
  <polygon points="275,700 500,120 610,120 388,700" fill="#B9B9B9"/>
  <polygon points="420,0 565,0 1600,320 1600,430" fill="#B3B3B3"/>
  <rect x="915" y="115" width="560" height="210" rx="10" fill="url(#g2)"/>
  <rect x="965" y="260" width="465" height="18" rx="9" fill="#4A4A4A"/>
  <rect x="970" y="266" width="455" height="4" fill="#111111" opacity="0.7"/>
  <g opacity="0.35" fill="#7DD3FF">
    <circle cx="1240" cy="200" r="4"/>
    <circle cx="1260" cy="205" r="4"/>
    <circle cx="1280" cy="198" r="4"/>
  </g>
  <ellipse cx="1260" cy="325" rx="240" ry="35" fill="#FFFFFF" opacity="0.16"/>
</svg>
