<?xml version="1.0" encoding="UTF-8"?>
<svg id="uuid-6445a13c-d11f-4ef8-92d9-b59582c9d660" data-name="Слой 1" xmlns="http://www.w3.org/2000/svg" viewBox="0 0 1300 200">
  <defs>
    <style>
      .uuid-137e1f5f-77c6-4ea4-b7f7-b7d1e31e1a2b {
        fill: #939393;
      }
    </style>
  </defs>
  <g>
    <path class="uuid-137e1f5f-77c6-4ea4-b7f7-b7d1e31e1a2b" d="M169.06,82.09c0-6.5,1.26-10.88,3.79-13.13,2.35-2.25,6.86-3.38,13.54-3.38h51.44c6.68,0,11.19,1.13,13.54,3.38,2.53,2.26,3.79,6.63,3.79,13.13v36.82c0,6.5-1.26,10.88-3.79,13.13-2.35,2.26-6.86,3.38-13.54,3.38h-51.44c-6.68,0-11.19-1.13-13.54-3.38-2.53-2.25-3.79-6.63-3.79-13.13v-36.82ZM238.92,122.3v-44.27h-53.61v44.27h53.61Z"/>
    <path class="uuid-137e1f5f-77c6-4ea4-b7f7-b7d1e31e1a2b" d="M293.34,99.55l-33.71-33.98h21.53l22.34,23.69,21.25-23.69h18.68l-30.46,32.08,37.63,37.77h-22.07l-25.59-27.08-23.56,27.08h-19.22l33.17-35.88Z"/>
    <path class="uuid-137e1f5f-77c6-4ea4-b7f7-b7d1e31e1a2b" d="M396.9,65.57h11.24l38.45,69.86h-16.25l-26.94-50.5-28.29,50.5h-18.55l40.34-69.86Z"/>
    <path class="uuid-137e1f5f-77c6-4ea4-b7f7-b7d1e31e1a2b" d="M491.53,65.57h15.7l40.07,69.86h-18.28l-8.39-15.3h-44.27l-8.12,15.3h-16.25l39.53-69.86ZM513.86,107.54l-15.03-28.43-15.57,28.43h30.6Z"/>
    <path class="uuid-137e1f5f-77c6-4ea4-b7f7-b7d1e31e1a2b" d="M619.73,65.71v-.14h16.38v29.11l38.72-29.11h23.56l-46.3,32.9,51.99,36.96h-26.13l-41.83-30.73v30.73h-.14v.14h-16.38v-30.73l-41.83,30.73h-26.13l51.98-36.96-46.3-32.9h23.56l38.72,29.11v-29.11h.14Z"/>
    <path class="uuid-137e1f5f-77c6-4ea4-b7f7-b7d1e31e1a2b" d="M716.12,122.3v-40.85c0-8.76,7.1-15.87,15.87-15.87h58.86v56.72h6.23v26.94h-16.25v-13.81h-54.83v13.81h-16.25v-26.94h6.36ZM774.6,122.3v-43.59h-36.68c-3.07,0-5.55,2.49-5.55,5.55v38.04h42.24Z"/>
    <path class="uuid-137e1f5f-77c6-4ea4-b7f7-b7d1e31e1a2b" d="M842.29,65.57h15.7l40.07,69.86h-18.28l-8.39-15.3h-44.27l-8.12,15.3h-16.25l39.53-69.86ZM864.63,107.54l-15.03-28.43-15.57,28.43h30.59Z"/>
    <path class="uuid-137e1f5f-77c6-4ea4-b7f7-b7d1e31e1a2b" d="M985.11,135.43h-14.62v-37.77c0-1.17.04-2.62.14-4.33.09-2.08.27-4.33.54-6.77-1.54,1.81-3.48,3.7-5.82,5.69l-51.31,43.19h-11.1v-69.86h14.62v36.69c0,1.54-.23,5.55-.68,12.05,2.08-2.44,4.74-4.96,7.99-7.58l49.14-41.16h11.1v69.86ZM965.35,48.38v13.94h-42.1v-13.94h42.1Z"/>
    <path class="uuid-137e1f5f-77c6-4ea4-b7f7-b7d1e31e1a2b" d="M993.5,65.57h16.38v29.11l38.72-29.11h23.56l-46.3,32.9,51.98,36.96h-26.13l-41.83-30.73v30.73h-16.38v-69.86Z"/>
    <path class="uuid-137e1f5f-77c6-4ea4-b7f7-b7d1e31e1a2b" d="M1165.57,135.43h-14.62v-37.77c0-1.17.04-2.62.14-4.33.09-2.08.27-4.33.54-6.77-1.54,1.81-3.48,3.7-5.82,5.69l-51.31,43.19h-11.1v-69.86h14.62v36.69c0,1.54-.23,5.55-.68,12.05,2.08-2.44,4.74-4.96,7.99-7.58l49.14-41.16h11.1v69.86Z"/>
    <path class="uuid-137e1f5f-77c6-4ea4-b7f7-b7d1e31e1a2b" d="M1176.13,65.57h16.25v27.08h50.77v-27.08h16.38v69.86h-16.38v-30.05h-50.77v30.05h-16.25v-69.86Z"/>
  </g>
  <g>
    <polygon class="uuid-137e1f5f-77c6-4ea4-b7f7-b7d1e31e1a2b" points="40.48 178.5 40.48 21.5 197.48 21.5 40.48 178.5"/>
    <polygon points="40.48 100 40.48 21.5 118.98 21.5 40.48 100"/>
  </g>
</svg>