<svg width="9" height="8" viewBox="0 0 9 8" fill="none" xmlns="http://www.w3.org/2000/svg">
<path d="M3.92436 0.388176C4.10555 -0.129392 4.89445 -0.129392 5.07564 0.388176L5.72301 2.23742C5.80404 2.46889 6.03643 2.6256 6.29865 2.6256H8.39358C8.97991 2.6256 9.22369 3.32198 8.74934 3.64186L7.05451 4.78475C6.84237 4.92781 6.7536 5.18137 6.83463 5.41284L7.482 7.26208C7.66319 7.77965 7.02495 8.21004 6.5506 7.89016L4.85576 6.74727C4.64363 6.60421 4.35637 6.60421 4.14424 6.74727L2.4494 7.89016C1.97505 8.21004 1.33681 7.77965 1.518 7.26208L2.16537 5.41284C2.2464 5.18137 2.15763 4.92781 1.94549 4.78475L0.250658 3.64186C-0.223694 3.32198 0.0200908 2.6256 0.606422 2.6256H2.70135C2.96357 2.6256 3.19596 2.46889 3.27699 2.23742L3.92436 0.388176Z" fill="#F3BC46"/>
</svg>
