<svg width="16" height="20" viewBox="0 0 16 20" fill="none" xmlns="http://www.w3.org/2000/svg">
<path d="M7.64782 15.7236C8.74698 15.7236 9.81081 15.4834 10.8135 15.0156L11.3393 14.7685L14.7345 19.7084C14.9438 20.0128 15.4057 20.0938 15.7046 19.8802C15.8581 19.7699 15.9587 19.6051 15.9899 19.4194C16.0212 19.2295 15.9791 19.041 15.8717 18.8874L12.4941 13.9725L12.9289 13.5466C14.4587 12.0456 15.3038 10.0252 15.3038 7.86388C15.3038 3.52838 11.8705 0 7.65191 0C3.43327 0 0 3.52842 0 7.86388C0 12.1994 3.43331 15.7278 7.65191 15.7278L7.64782 15.7236ZM7.64782 1.42559C11.1015 1.42559 13.9085 4.31032 13.9085 7.85968C13.9085 11.409 11.1015 14.2938 7.64782 14.2938C4.19413 14.2938 1.38716 11.409 1.38716 7.85968C1.38716 4.31032 4.19413 1.42559 7.64782 1.42559Z" fill="black"/>
</svg>
